<?xml version="1.0" encoding="UTF-8" standalone="no"?>
<!-- Created with Inkscape (http://www.inkscape.org/) -->

<svg
   xmlns:dc="http://purl.org/dc/elements/1.1/"
   xmlns:cc="http://creativecommons.org/ns#"
   xmlns:rdf="http://www.w3.org/1999/02/22-rdf-syntax-ns#"
   xmlns:svg="http://www.w3.org/2000/svg"
   xmlns="http://www.w3.org/2000/svg"
   xmlns:sodipodi="http://sodipodi.sourceforge.net/DTD/sodipodi-0.dtd"
   xmlns:inkscape="http://www.inkscape.org/namespaces/inkscape"
   width="16"
   height="16"
   viewBox="0 0 4.2333332 4.2333335"
   version="1.1"
   id="svg8"
   inkscape:version="0.92.5 (2060ec1f9f, 2020-04-08)"
   sodipodi:docname="icon.svg">
  <defs
     id="defs2" />
  <sodipodi:namedview
     id="base"
     pagecolor="#ffffff"
     bordercolor="#666666"
     borderopacity="1.0"
     inkscape:pageopacity="0.0"
     inkscape:pageshadow="2"
     inkscape:zoom="31.678384"
     inkscape:cx="13.988506"
     inkscape:cy="8.7359952"
     inkscape:document-units="mm"
     inkscape:current-layer="layer1"
     showgrid="true"
     units="px"
     inkscape:window-width="1848"
     inkscape:window-height="1016"
     inkscape:window-x="72"
     inkscape:window-y="27"
     inkscape:window-maximized="1">
    <inkscape:grid
       type="xygrid"
       id="grid3719" />
  </sodipodi:namedview>
  <metadata
     id="metadata5">
    <rdf:RDF>
      <cc:Work
         rdf:about="">
        <dc:format>image/svg+xml</dc:format>
        <dc:type
           rdf:resource="http://purl.org/dc/dcmitype/StillImage" />
        <dc:title></dc:title>
      </cc:Work>
    </rdf:RDF>
  </metadata>
  <g
     inkscape:label="Layer 1"
     inkscape:groupmode="layer"
     id="layer1"
     transform="translate(0,-292.76665)">
    <path
       inkscape:connector-curvature="0"
       style="fill:#8da5f3;stroke-width:0.19843748"
       d="m 3.1086042,293.49436 a 0.396875,0.396875 0 0 0 -0.2282031,0.72093 c -0.038298,0.17562 -0.1099344,0.2659 -0.1958578,0.32583 -0.1277938,0.0895 -0.3399234,0.12025 -0.5879703,0.14486 -0.2480469,0.0246 -0.5320109,0.0439 -0.7762875,0.21491 -0.1770062,0.12402 -0.3040062,0.32782 -0.36075933,0.61436 a 0.396875,0.396875 0 1 0 0.39290623,0.0363 c 0.038299,-0.17562 0.1097359,-0.26531 0.1958577,-0.32544 0.1277938,-0.0895 0.3399235,-0.12025 0.5879704,-0.14486 0.2480468,-0.0246 0.5320109,-0.0439 0.7762874,-0.2149 0.1770063,-0.12403 0.3040063,-0.32822 0.3607594,-0.61476 a 0.396875,0.396875 0 0 0 -0.1647031,-0.75724 z"
       id="path2" />
    <path
       inkscape:connector-curvature="0"
       style="fill:#8da5f3;fill-opacity:1;stroke-width:0.26458332"
       d="m 0.79374997,293.03123 a 0.52916667,0.52916667 0 0 0 -0.5291666,0.52917 h 0.5291666 z m 0.52916673,0 v 0.52917 h 0.5291667 v -0.52917 z m 1.0583334,0 v 0.52917 h 0.5291666 v -0.52917 z m 1.0583336,0 v 0.52917 h 0.529166 a 0.52916667,0.52916667 0 0 0 -0.529166,-0.52917 z m -3.17500033,1.05833 v 0.52917 h 0.5291666 v -0.52917 z m 3.17500033,0 v 0.52917 h 0.529166 v -0.52917 z m -3.17500033,1.05834 v 0.52916 h 0.5291666 v -0.52916 z m 3.17500033,0 v 0.52916 h 0.529166 v -0.52916 z m -3.17500033,1.05833 a 0.52916667,0.52916667 0 0 0 0.5291666,0.52917 v -0.52917 z m 1.05833333,0 v 0.52917 h 0.5291667 v -0.52917 z m 1.0583334,0 v 0.52917 h 0.5291666 v -0.52917 z m 1.0583336,0 v 0.52917 a 0.52916667,0.52916667 0 0 0 0.529166,-0.52917 z"
       id="path2-3" />
  </g>
</svg>
